<svg width="22" height="26" viewBox="0 0 22 26" fill="none" xmlns="http://www.w3.org/2000/svg">
<path d="M18.0372 24.161C16.7071 25.4742 15.2549 25.2669 13.857 24.6448C12.3776 24.0089 11.0204 23.9813 9.45958 24.6448C7.50519 25.5019 6.4737 25.253 5.30649 24.161C-1.31673 17.2078 -0.339537 6.61894 7.17945 6.23188C9.0117 6.32864 10.2875 7.25482 11.3597 7.33776C12.9612 7.006 14.4949 6.05217 16.205 6.17658C18.2544 6.34247 19.8016 7.17188 20.8195 8.66482C16.585 11.2498 17.5893 16.9313 21.471 18.521C20.6973 20.5945 19.693 22.6542 18.0236 24.1748L18.0372 24.161ZM11.224 6.14894C11.0204 3.06629 13.4769 0.522764 16.3 0.273941C16.6936 3.84041 13.1241 6.49453 11.224 6.14894Z" fill="black"/>
</svg>
