<svg width="44" height="13" viewBox="0 0 44 13" fill="none" xmlns="http://www.w3.org/2000/svg">
<path d="M6.81857 3.43178C6.62657 3.07978 6.36257 2.81178 6.02657 2.62778C5.69057 2.44378 5.29857 2.35178 4.85057 2.35178C4.35457 2.35178 3.91457 2.46378 3.53057 2.68778C3.14657 2.91178 2.84657 3.23178 2.63057 3.64778C2.41457 4.06378 2.30657 4.54378 2.30657 5.08778C2.30657 5.64778 2.41457 6.13578 2.63057 6.55178C2.85457 6.96778 3.16257 7.28778 3.55457 7.51178C3.94657 7.73578 4.40257 7.84778 4.92257 7.84778C5.56257 7.84778 6.08657 7.67978 6.49457 7.34378C6.90257 6.99978 7.17057 6.52378 7.29857 5.91578H4.41857V4.63178H8.95457V6.09578C8.84257 6.67978 8.60257 7.21978 8.23457 7.71578C7.86657 8.21178 7.39057 8.61178 6.80657 8.91578C6.23057 9.21178 5.58257 9.35978 4.86257 9.35978C4.05457 9.35978 3.32257 9.17978 2.66657 8.81978C2.01857 8.45178 1.50657 7.94378 1.13057 7.29578C0.762569 6.64778 0.578569 5.91178 0.578569 5.08778C0.578569 4.26378 0.762569 3.52778 1.13057 2.87978C1.50657 2.22378 2.01857 1.71578 2.66657 1.35578C3.32257 0.987781 4.05057 0.803781 4.85057 0.803781C5.79457 0.803781 6.61457 1.03578 7.31057 1.49978C8.00657 1.95578 8.48657 2.59978 8.75057 3.43178H6.81857ZM28.1062 2.53178C28.6022 2.53178 29.0382 2.63178 29.4142 2.83178C29.7902 3.02378 30.0862 3.27578 30.3022 3.58778V2.63978H31.9942V9.33578C31.9942 9.95178 31.8702 10.4998 31.6222 10.9798C31.3742 11.4678 31.0022 11.8518 30.5062 12.1318C30.0102 12.4198 29.4102 12.5638 28.7062 12.5638C27.7622 12.5638 26.9862 12.3438 26.3782 11.9038C25.7782 11.4638 25.4382 10.8638 25.3582 10.1038H27.0262C27.1142 10.4078 27.3022 10.6478 27.5902 10.8238C27.8862 11.0078 28.2422 11.0998 28.6582 11.0998C29.1462 11.0998 29.5422 10.9518 29.8462 10.6558C30.1502 10.3678 30.3022 9.92778 30.3022 9.33578V8.30378C30.0862 8.61578 29.7862 8.87578 29.4022 9.08378C29.0262 9.29178 28.5942 9.39578 28.1062 9.39578C27.5462 9.39578 27.0342 9.25178 26.5702 8.96378C26.1062 8.67578 25.7382 8.27178 25.4662 7.75178C25.2022 7.22378 25.0702 6.61978 25.0702 5.93978C25.0702 5.26778 25.2022 4.67178 25.4662 4.15178C25.7382 3.63178 26.1022 3.23178 26.5582 2.95178C27.0222 2.67178 27.5382 2.53178 28.1062 2.53178ZM30.3022 5.96378C30.3022 5.55578 30.2222 5.20778 30.0622 4.91978C29.9022 4.62378 29.6862 4.39978 29.4142 4.24778C29.1422 4.08778 28.8502 4.00778 28.5382 4.00778C28.2262 4.00778 27.9382 4.08378 27.6742 4.23578C27.4102 4.38778 27.1942 4.61178 27.0262 4.90778C26.8662 5.19578 26.7862 5.53978 26.7862 5.93978C26.7862 6.33978 26.8662 6.69178 27.0262 6.99578C27.1942 7.29178 27.4102 7.51978 27.6742 7.67978C27.9462 7.83978 28.2342 7.91978 28.5382 7.91978C28.8502 7.91978 29.1422 7.84378 29.4142 7.69178C29.6862 7.53178 29.9022 7.30778 30.0622 7.01978C30.2222 6.72378 30.3022 6.37178 30.3022 5.96378Z" fill="#4285F4"/>
<path d="M13.1495 9.39578C12.5095 9.39578 11.9335 9.25578 11.4215 8.97578C10.9095 8.68778 10.5055 8.28378 10.2095 7.76378C9.92151 7.24378 9.77751 6.64378 9.77751 5.96378C9.77751 5.28378 9.92551 4.68378 10.2215 4.16378C10.5255 3.64378 10.9375 3.24378 11.4575 2.96378C11.9775 2.67578 12.5575 2.53178 13.1975 2.53178C13.8375 2.53178 14.4175 2.67578 14.9375 2.96378C15.4575 3.24378 15.8655 3.64378 16.1615 4.16378C16.4655 4.68378 16.6175 5.28378 16.6175 5.96378C16.6175 6.64378 16.4615 7.24378 16.1495 7.76378C15.8455 8.28378 15.4295 8.68778 14.9015 8.97578C14.3815 9.25578 13.7975 9.39578 13.1495 9.39578ZM13.1495 7.93178C13.4535 7.93178 13.7375 7.85978 14.0015 7.71578C14.2735 7.56378 14.4895 7.33978 14.6495 7.04378C14.8095 6.74778 14.8895 6.38778 14.8895 5.96378C14.8895 5.33178 14.7215 4.84778 14.3855 4.51178C14.0575 4.16778 13.6535 3.99578 13.1735 3.99578C12.6935 3.99578 12.2895 4.16778 11.9615 4.51178C11.6415 4.84778 11.4815 5.33178 11.4815 5.96378C11.4815 6.59578 11.6375 7.08378 11.9495 7.42778C12.2695 7.76378 12.6695 7.93178 13.1495 7.93178ZM43.1549 5.81978C43.1549 6.05978 43.1389 6.27578 43.1069 6.46778H38.2469C38.2869 6.94778 38.4549 7.32378 38.7509 7.59578C39.0469 7.86778 39.4109 8.00378 39.8429 8.00378C40.4669 8.00378 40.9109 7.73578 41.1749 7.19978H42.9869C42.7949 7.83978 42.4269 8.36778 41.8829 8.78378C41.3389 9.19178 40.6709 9.39578 39.8789 9.39578C39.2389 9.39578 38.6629 9.25578 38.1509 8.97578C37.6469 8.68778 37.2509 8.28378 36.9629 7.76378C36.6829 7.24378 36.5429 6.64378 36.5429 5.96378C36.5429 5.27578 36.6829 4.67178 36.9629 4.15178C37.2429 3.63178 37.6349 3.23178 38.1389 2.95178C38.6429 2.67178 39.2229 2.53178 39.8789 2.53178C40.5109 2.53178 41.0749 2.66778 41.5709 2.93978C42.0749 3.21178 42.4629 3.59978 42.7349 4.10378C43.0149 4.59978 43.1549 5.17178 43.1549 5.81978ZM41.4149 5.33978C41.4069 4.90778 41.2509 4.56378 40.9469 4.30778C40.6429 4.04378 40.2709 3.91178 39.8309 3.91178C39.4149 3.91178 39.0629 4.03978 38.7749 4.29578C38.4949 4.54378 38.3229 4.89178 38.2589 5.33978H41.4149Z" fill="#EB4335"/>
<path d="M20.8019 9.39578C20.1619 9.39578 19.5859 9.25578 19.0739 8.97578C18.5619 8.68778 18.1579 8.28378 17.8619 7.76378C17.5739 7.24378 17.4299 6.64378 17.4299 5.96378C17.4299 5.28378 17.5779 4.68378 17.8739 4.16378C18.1779 3.64378 18.5899 3.24378 19.1099 2.96378C19.6299 2.67578 20.2099 2.53178 20.8499 2.53178C21.4899 2.53178 22.0699 2.67578 22.5899 2.96378C23.1099 3.24378 23.5179 3.64378 23.8139 4.16378C24.1179 4.68378 24.2699 5.28378 24.2699 5.96378C24.2699 6.64378 24.1139 7.24378 23.8019 7.76378C23.4979 8.28378 23.0819 8.68778 22.5539 8.97578C22.0339 9.25578 21.4499 9.39578 20.8019 9.39578ZM20.8019 7.93178C21.1059 7.93178 21.3899 7.85978 21.6539 7.71578C21.9259 7.56378 22.1419 7.33978 22.3019 7.04378C22.4619 6.74778 22.5419 6.38778 22.5419 5.96378C22.5419 5.33178 22.3739 4.84778 22.0379 4.51178C21.7099 4.16778 21.3059 3.99578 20.8259 3.99578C20.3459 3.99578 19.9419 4.16778 19.6139 4.51178C19.2939 4.84778 19.1339 5.33178 19.1339 5.96378C19.1339 6.59578 19.2899 7.08378 19.6019 7.42778C19.9219 7.76378 20.3219 7.93178 20.8019 7.93178Z" fill="#FBBC05"/>
<path d="M35.315 0.407781V9.28778H33.635V0.407781H35.315Z" fill="#34A853"/>
</svg>
