<svg width="26" height="27" viewBox="0 0 26 27" fill="none" xmlns="http://www.w3.org/2000/svg">
<g clip-path="url(#clip0_72_42)">
<path d="M25.6238 13.6032C25.6238 12.5659 25.5377 11.8089 25.3512 11.0238H13.228V15.706H20.344C20.2006 16.8695 19.4259 18.6218 17.7042 19.7993L17.6801 19.9561L21.5132 22.8576L21.7788 22.8835C24.2177 20.6825 25.6238 17.4443 25.6238 13.6032Z" fill="#4285F4"/>
<path d="M13.228 25.9395C16.7143 25.9395 19.641 24.8179 21.7788 22.8835L17.7042 19.7993C16.6139 20.5423 15.1504 21.061 13.228 21.061C9.81341 21.061 6.91533 18.8602 5.88225 15.8181L5.73082 15.8307L1.74506 18.8447L1.69293 18.9863C3.81627 23.1077 8.17778 25.9395 13.228 25.9395Z" fill="#34A853"/>
<path d="M5.88221 15.8182C5.60962 15.0331 5.45186 14.192 5.45186 13.3229C5.45186 12.4537 5.60962 11.6126 5.86787 10.8276L5.86065 10.6604L1.82494 7.59798L1.6929 7.65934C0.817765 9.36962 0.315613 11.2902 0.315613 13.3229C0.315613 15.3555 0.817765 17.276 1.6929 18.9863L5.88221 15.8182Z" fill="#FBBC05"/>
<path d="M13.228 5.58461C15.6526 5.58461 17.2881 6.60795 18.2207 7.46314L21.8649 3.98653C19.6268 1.95386 16.7143 0.706207 13.228 0.706207C8.17778 0.706207 3.81627 3.53792 1.69293 7.65932L5.8679 10.8275C6.91533 7.78554 9.81341 5.58461 13.228 5.58461Z" fill="#EB4335"/>
</g>
<defs>
<clipPath id="clip0_72_42">
<rect width="25.3202" height="25.3202" fill="white" transform="translate(0.315613 0.706192)"/>
</clipPath>
</defs>
</svg>
